<?xml version="1.0" standalone="no"?><!DOCTYPE svg PUBLIC "-//W3C//DTD SVG 1.1//EN" "http://www.w3.org/Graphics/SVG/1.1/DTD/svg11.dtd"><svg t="1657379477298" class="icon" viewBox="0 0 1024 1024" version="1.1" xmlns="http://www.w3.org/2000/svg" p-id="2365" xmlns:xlink="http://www.w3.org/1999/xlink" width="200" height="200"><defs><style type="text/css"></style></defs><path d="M460.8 921.6h102.4v51.2a40.96 40.96 0 0 1-40.96 40.96h-20.48a40.96 40.96 0 0 1-40.96-40.96v-51.2z" fill="#FF7A45" p-id="2366"></path><path d="M389.12 655.36h245.76l-15.53408 240.7936A81.92 81.92 0 0 1 537.58976 972.8h-51.17952a81.92 81.92 0 0 1-81.75616-76.6464L389.12 655.36z" fill="#CF5A1A" p-id="2367"></path><path d="M512 389.12m-389.12 0a389.12 389.12 0 1 0 778.24 0 389.12 389.12 0 1 0-778.24 0Z" fill="#FF7A45" p-id="2368"></path><path d="M624.64 409.6a30.72 30.72 0 0 1 0 61.44h-15.37024l0.01024 294.94272c-19.90656 5.12-40.42752 8.704-61.44 10.62912L547.84 471.04h-71.68v305.57184a387.92192 387.92192 0 0 1-61.44-10.62912V471.04H399.36a30.72 30.72 0 0 1-30.6688-28.91776L368.64 440.32a30.72 30.72 0 0 1 30.72-30.72z" fill="#FFBB96" p-id="2369"></path></svg>